<svg width="98" height="87" viewBox="0 0 98 87" fill="none" xmlns="http://www.w3.org/2000/svg">
    <path d="M94.3251 83.8565H91.6179L91.2049 86.0981H90.1037L92.1532 74.9695H93.8815L95.931 86.0981H94.738L94.3251 83.8565ZM92.9485 76.3685L91.7709 82.7913H94.1568L92.9485 76.3685Z" fill="#C1203A"/>
    <path d="M81.5143 74.9695H83.9155C85.5826 74.9695 86.2403 75.7962 86.2403 77.4337V77.9583C86.2403 79.1348 85.9191 79.8661 84.9861 80.1681C86.0262 80.4702 86.4238 81.3287 86.4238 82.5528V83.4908C86.4238 85.1601 85.6438 86.0981 83.9767 86.0981H81.5143V74.9695ZM82.7073 79.6912H83.6249C84.5732 79.6912 85.0626 79.3732 85.0626 78.2127V77.5608C85.0626 76.5752 84.7414 76.0982 83.8849 76.0982H82.7073V79.6912ZM82.7073 84.9693H83.9767C84.8485 84.9693 85.2462 84.4924 85.2462 83.459V82.4734C85.2462 81.2333 84.772 80.8199 83.7473 80.8199H82.7073V84.9693Z" fill="#C1203A"/>
    <path d="M76.3267 77.2429L75.1796 80.9312L73.5889 86.0981H72.3501V74.9695H73.4054V83.2682L74.5066 79.7548L76.0666 74.9695H77.3973V86.0981H76.3267V77.2429Z" fill="#C1203A"/>
    <path d="M66.5829 86.0981H65.39V76.0982H63.417V74.9695H68.5559V76.0982H66.5829V86.0981Z" fill="#C1203A"/>
    <path d="M58.7035 86.0981L56.4093 81.2651L55.7822 82.3621V86.0981H54.5892V74.9695H55.7822V80.343L58.627 74.9695H59.8353L57.1281 80.0409L59.927 86.0981H58.7035Z" fill="#C1203A"/>
    <path d="M47.3648 79.8979H49.9802V81.0107H47.3648V84.9693H50.5767V86.0981H46.1718V74.9695H50.5767V76.0982H47.3648V79.8979Z" fill="#C1203A"/>
    <path d="M40.8462 76.0982H38.2155V86.0981H37.0225V74.9695H42.0392V86.0981H40.8462V76.0982Z" fill="#C1203A"/>
    <path d="M30.6159 74.8582C32.2677 74.8582 33.0324 75.971 33.0324 77.6562V78.6578H31.9006V77.5926C31.9006 76.5911 31.5183 75.9869 30.6465 75.9869C29.79 75.9869 29.3923 76.5911 29.3923 77.5926V83.4749C29.3923 84.4765 29.79 85.0806 30.6465 85.0806C31.5183 85.0806 31.9006 84.4765 31.9006 83.4749V82.0282H33.0324V83.4113C33.0324 85.0965 32.2677 86.2094 30.6159 86.2094C28.9794 86.2094 28.2146 85.0965 28.2146 83.4113V77.6562C28.2146 75.971 28.9794 74.8582 30.6159 74.8582Z" fill="#C1203A"/>
    <path d="M19.7247 74.9695H22.0648C23.7472 74.9695 24.466 76.0028 24.466 77.688V79.0235C24.466 80.7882 23.6707 81.7102 21.973 81.7102H20.9177V86.0981H19.7247V74.9695ZM20.9177 80.5974H21.973C22.8601 80.5974 23.2884 80.1681 23.2884 79.103V77.6244C23.2884 76.607 22.9366 76.0982 22.0648 76.0982H20.9177V80.5974Z" fill="#C1203A"/>
    <path d="M12.5003 79.8979H15.1157V81.0107H12.5003V84.9693H15.7122V86.0981H11.3073V74.9695H15.7122V76.0982H12.5003V79.8979Z" fill="#C1203A"/>
    <path d="M5.98168 76.0982H3.35101V86.0981H2.15804V74.9695H7.17466V86.0981H5.98168V76.0982Z" fill="#C1203A"/>
    <path d="M93.5245 70.8754H92.228L92.0303 71.949H91.5029L92.4844 66.6193H93.3121L94.2936 71.949H93.7223L93.5245 70.8754ZM92.8653 67.2893L92.3013 70.3653H93.4439L92.8653 67.2893Z" fill="#7B7B7B"/>
    <path d="M86.9517 67.1599H85.9702L85.853 70.6242C85.8237 71.4693 85.6039 71.949 84.8202 71.9566H84.7249V71.416C85.201 71.416 85.2816 71.1648 85.2963 70.6546L85.4354 66.6193H87.523V71.949H86.9517V67.1599Z" fill="#7B7B7B"/>
    <path d="M78.472 70.6623V67.906C78.472 67.0914 78.8602 66.566 79.6439 66.566C80.435 66.566 80.8232 67.0914 80.8232 67.906V70.6623C80.8232 71.4693 80.435 72.0023 79.6439 72.0023C78.8602 72.0023 78.472 71.4693 78.472 70.6623ZM79.036 67.8756V70.6927C79.036 71.18 79.2337 71.4617 79.6439 71.4617C80.0614 71.4617 80.2519 71.18 80.2519 70.6927V67.8756C80.2519 67.3959 80.0614 67.1066 79.6439 67.1066C79.2337 67.1066 79.036 67.3959 79.036 67.8756Z" fill="#7B7B7B"/>
    <path d="M73.9732 71.949L72.8745 69.6344L72.5742 70.1597V71.949H72.0028V66.6193H72.5742V69.1928L73.9366 66.6193H74.5152L73.2187 69.0481L74.5592 71.949H73.9732Z" fill="#7B7B7B"/>
    <path d="M64.2308 66.6193H64.8021V71.4084H65.7836V66.6193H66.355V71.4084H67.3365V66.6193H67.9005V71.949H64.2308V66.6193Z" fill="#7B7B7B"/>
    <path d="M25.9655 43.1829H72.0349V47.3697H25.9655V43.1829Z" fill="#C1203A"/>
    <path d="M13.3783 50.7715H84.6221V54.9584H13.3783V50.7715Z" fill="#C1203A"/>
    <path d="M0.791016 58.3602H97.2094V62.5471H0.791016V58.3602Z" fill="#C1203A"/>
    <path d="M43.2101 22.2486L49.0002 25.2579V0.791016L43.2101 22.2486Z" fill="#F9D91F"/>
    <path d="M49.0002 25.2579L54.9162 22.2486L49.0002 0.791016V25.2579Z" fill="#F6B81F"/>
    <path d="M29.7417 20.8094L47.3639 39.1269L29.7417 18.8468V20.8094Z" fill="#91A725"/>
    <path d="M47.3639 28.2672L29.7417 18.8468L47.3639 39.1269V28.2672Z" fill="#BAC720"/>
    <path d="M68.3846 20.8094L50.7624 39.1269L68.3846 18.8468V20.8094Z" fill="#97429A"/>
    <path d="M50.7624 28.2672L68.3846 18.8468L50.7624 39.1269V28.2672Z" fill="#BB79C4"/>
</svg>
