<svg width="29" height="24" viewBox="0 0 29 24" fill="none" xmlns="http://www.w3.org/2000/svg">
    <path fill-rule="evenodd" clip-rule="evenodd" d="M28.1514 5.68304L23.7034 8.68324C23.5888 8.76062 23.52 8.88989 23.52 9.02816V14.476C23.52 14.7056 23.7063 14.892 23.936 14.892C24.019 14.892 24.0999 14.8672 24.1687 14.8208L28.6167 11.8206C28.7313 11.7432 28.8001 11.614 28.8001 11.4757V6.02797C28.8001 5.79815 28.6138 5.61197 28.3841 5.61197C28.3012 5.61197 28.2202 5.63671 28.1514 5.68304ZM15.2 4.38749V23.584C15.2 23.8138 15.3863 24 15.616 24C15.6989 24 15.7799 23.9753 15.8487 23.9289L21.7367 19.9574C21.8513 19.8801 21.92 19.7509 21.92 19.6125V0.416005C21.92 0.18624 21.7338 0 21.504 0C21.4211 0 21.3401 0.0247655 21.2714 0.071171L15.3834 4.04263C15.2688 4.11998 15.2 4.24918 15.2 4.38749ZM6.88001 4.38749V23.584C6.88001 23.8138 7.06625 24 7.29602 24C7.37892 24 7.45992 23.9753 7.52865 23.9289L13.4167 19.9574C13.5313 19.8801 13.6 19.7509 13.6 19.6125V0.416005C13.6 0.18624 13.4138 0 13.184 0C13.1011 0 13.0201 0.0247655 12.9514 0.071171L7.0634 4.04263C6.94878 4.11998 6.88001 4.24918 6.88001 4.38749ZM4.63139 5.68304L0.183359 8.68324C0.0687661 8.76062 0 8.88989 0 9.02816V14.476C0 14.7056 0.186241 14.892 0.416006 14.892C0.498914 14.892 0.579906 14.8672 0.648642 14.8208L5.09665 11.8206C5.21127 11.7432 5.28001 11.614 5.28001 11.4757V6.02797C5.28001 5.79815 5.09377 5.61197 4.864 5.61197C4.78112 5.61197 4.70013 5.63671 4.63139 5.68304Z" fill="#040404"/>
</svg>
