<svg width="71" height="12" viewBox="0 0 71 12" fill="none" xmlns="http://www.w3.org/2000/svg">
    <g clip-path="url(#clip0_6285_7477)">
        <path fill-rule="evenodd" clip-rule="evenodd" d="M21.3839 0.75H13.7825L12.7134 1.81272V10.2114L13.7825 11.2481H21.3839L22.4564 10.2114V1.81462L21.3839 0.75ZM20.2982 9.14822H14.8853V2.85132H20.2982V9.14822Z" fill="#040404"/>
        <path d="M9.47231 11.2491H1.87083L0.800293 10.2143V1.81559L1.87083 0.750977H9.47231L10.5424 1.81559V3.90036H8.38609V2.85041H2.97221V9.14917H8.38609V8.11436H10.5424V10.2143L9.47231 11.2491Z" fill="#040404"/>
        <path fill-rule="evenodd" clip-rule="evenodd" d="M30.0428 0.75H36.5415L37.6275 1.81462V10.2133L36.5415 11.25H30.0428L28.9571 10.2133V7.06389H26.7989V11.2495H24.627V0.75H26.7989V4.96211H28.9571V1.81272L30.0428 0.75ZM31.129 9.14821H35.4724V2.85132H31.129V9.14821Z" fill="#040404"/>
        <path d="M48.4699 11.2481H40.8683L39.7983 10.2133V8.11339H41.9697V9.1482H47.3842V7.06391H44.1264V4.96398H47.3842V2.84943H41.9697V3.89939H39.7983V1.81462L40.8683 0.75H48.4699L49.5406 1.81462V4.96398L48.4699 6.01395L49.5406 7.06391V10.2133L48.4699 11.2481Z" fill="#040404"/>
        <path d="M55.1914 6.00853H58.4538V4.10254H55.1914V6.00853Z" fill="#040404"/>
        <path d="M64.0673 6.95776H62.1143V4.10254H64.0673V6.95776Z" fill="#040404"/>
        <path d="M67.3403 6.95776H65.3765V4.10254H67.3403V6.95776Z" fill="#040404"/>
        <path fill-rule="evenodd" clip-rule="evenodd" d="M69.7274 0.75H52.7818L51.7129 1.81272V10.2114L52.7818 11.2495H69.7284L70.8005 10.2128V1.81462L69.7274 0.75ZM55.1912 7.89889H53.8822V9.16449H55.1912V7.89889ZM53.8822 2.837H59.1091L59.7552 3.47974V6.64379L59.1091 7.27659H53.8822V2.837ZM67.9872 2.837H61.4499L60.8052 3.47738V7.60058L61.4499 8.22344H64.0675V9.16463H65.3769V8.2225H67.9872L68.6413 7.59964V3.47738L67.9872 2.837Z" fill="#040404"/>
    </g>
    <defs>
        <clipPath id="clip0_6285_7477">
            <rect width="70" height="10.5" fill="white" transform="translate(0.800293 0.75)"/>
        </clipPath>
    </defs>
</svg>
